PathFileType	4	(X/Y/Z)	C:/Users/beibeiliu/ov580/test_trc/User2\sequence.12_training_dense_right.trc
DataRate	CameraRate	NumFrames	NumMarkers	Units	OrigDataRate	OrigDataStartFrame	OrigNumFrames
120	120	20	19	mm	120	335	446
Frame#	Time	ThumbCMC			ThumbMCP			ThumbIP			ThumbTip			IndexMCP			IndexPIP			IndexTip			MiddleMCP			MiddlePIP			MiddleTip			RingMCP			RingPIP			RingTip			PinkyMCP			PinkyPIP			PinkyTip			BackHand1			BackHand2			BackHand3	
		X0	Y0	Z0	X1	Y1	Z1	X2	Y2	Z2	X3	Y3	Z3	X4	Y4	Z4	X5	Y5	Z5	X6	Y6	Z6	X7	Y7	Z7	X8	Y8	Z8	X9	Y9	Z9	X10	Y10	Z10	X11	Y11	Z11	X12	Y12	Z12	X13	Y13	Z13	X14	Y14	Z14	X15	Y15	Z15	X16	Y16	Z16	X17	Y17	Z17	X18	Y18	Z18	
334	2.78333	171.926	-45.1194	69.6455	163.69	-24.5396	41.0508	142.345	-14.2954	13.3414	116.739	-15.0335	4.30991	135.99	-77.0465	7.4518	117.849	-54.8337	-13.504	105.931	-21.8736	-9.91496	112.916	-95.9741	13.9596	99.839	-94.8046	-12.0766	77.8983	-89.4651	-41.4988	90.7681	-94.8559	34.3245	71.4697	-97.1575	12.7706	60.3415	-95.3867	-13.302	75.222	-84.5812	59.1826	54.0992	-87.1874	40.319	38.2215	-92.657	28.1356	117.781	-89.4003	84.1604	136.293	-84.8046	114.17	158.292	-85.3439	83.3787	
335	2.79167	182.32	-43.6536	68.3975	172.08	-26.6792	38.7568	154.444	-18.458	7.96739	132.019	-17.9827	-2.65865	147.627	-80.443	4.26101	131.324	-64.4931	-14.868	123.076	-29.3771	-17.1515	123.575	-100.463	17.4564	111.005	-100.77	-15.0763	94.5701	-96.5764	-44.4318	104.086	-99.0705	28.2589	88.8448	-102.832	4.95383	72.3389	-103.086	-21.6103	87.5305	-87.377	53.279	66.5585	-90.1351	34.957	53.1606	-99.2954	19.8593	129.086	-90.5426	85.556	139.682	-84.218	115.235	167.125	-82.0476	84.9852	
336	2.8	183.976	-44.0137	72.1349	183.179	-23.7817	39.297	161.348	-21.9971	9.7558	140.769	-22.41	-5.14774	159.256	-84.7987	10.6087	149.934	-67.4757	-17.3179	132.574	-35.6343	-19.7695	139.461	-102.88	16.33	129.342	-104.723	-14.5841	112.416	-101.309	-48.7102	116.421	-102.679	26.5972	101.956	-106.86	4.69848	91.9845	-106.953	-23.4716	95.8912	-91.2168	46.8795	77.6771	-95.3962	26.3958	66.6207	-102.473	8.97636	133.555	-91.734	81.7533	141.261	-83.84	111.278	171.447	-82.3215	87.5347	
337	2.80833	192.572	-36.7939	74.3717	186.917	-21.9164	37.842	170.343	-18.4057	8.54076	147.548	-22.9792	-9.7243	174.136	-80.9179	5.60777	158.611	-65.7009	-18.1192	146.768	-37.5225	-22.8	148.872	-103.264	12.5183	145.023	-104.356	-17.3959	131.485	-102.822	-45.3447	124.345	-103.161	26.9387	114.433	-108.18	2.29241	107.821	-111.276	-28.5434	106.117	-92.83	44.6971	90.4859	-99.2021	19.9138	77.4203	-109.237	2.97956	139.79	-90.7546	84.3184	148.574	-78.6942	111.567	177.281	-77.5741	85.7302	
338	2.81667	190.086	-29.2949	79.0814	187.643	-13.7498	39.9204	171.063	-10.9337	8.01339	151.159	-18.9319	-8.22757	179.533	-74.8598	11.1782	169.769	-56.2079	-18.4888	148.347	-31.1469	-22.1047	160.708	-98.6484	11.0392	154.727	-101.136	-20.9666	149.11	-98.422	-49.601	135.847	-102.66	23.7587	129.783	-106.85	-2.78709	122.404	-111.318	-29.4992	114.066	-94.2125	40.5233	99.4903	-101.581	17.7411	92.5934	-111.669	-1.86425	150.114	-87.2995	82.4826	153.282	-77.4717	109.69	183.551	-72.3942	88.8316	
339	2.825	187.762	-19.1309	77.0945	179.46	-1.29491	49.1357	164.969	-2.40187	13.8321	146.589	-11.0402	-8.22329	184.154	-60.8841	7.6909	174.508	-45.9652	-14.8065	150.208	-21.4343	-21.5304	172.168	-89.3898	10.5175	167.085	-90.883	-17.3291	161.173	-90.3761	-53.6023	147.572	-97.5046	21.5223	141.427	-102.38	-3.33658	139.506	-106.333	-35.8292	123.764	-92.8311	40.1912	113.92	-101.866	18.3649	105.645	-111.344	-3.38253	154.507	-84.2187	80.5063	157.421	-72.9784	113.591	188.391	-62.413	89.5927	
340	2.83333	176.198	-9.76942	81.8836	166.155	10.8097	48.7758	151.987	12.8067	16.677	134.432	-0.126572	-3.18723	186.609	-44.5105	11.4261	164.698	-33.4646	-15.2666	141.028	-15.8718	-18.5245	178.846	-76.0405	8.39884	176.88	-75.9307	-22.2428	169.254	-77.1993	-51.4746	157.735	-90.0566	20.834	154.268	-95.2129	-7.21668	152.087	-96.1191	-33.5519	133.366	-92.3708	36.7792	125.526	-101.992	15.4777	120.113	-113.779	-8.46707	160.209	-77.835	78.371	158.262	-73.7777	107.198	188.011	-53.7267	86.7491	
341	2.84167	163.348	2.08342	84.9607	145.526	12.4541	54.5972	129.627	15.5781	22.9987	116.553	-0.341566	0.726794	176.834	-27.6218	9.08264	153.414	-18.9283	-13.6614	125.253	-10.3946	-14.9511	182.575	-54.6024	8.48783	179.463	-55.7868	-21.5155	169.176	-59.9913	-54.4862	164.517	-78.9508	19.2775	162.675	-83.7237	-9.60612	160.164	-85.5466	-36.3093	142.652	-93.1127	31.8703	139.243	-98.8496	11.39	138.066	-106.417	-12.5404	167.073	-70.5414	78.654	167.912	-66.5463	109.071	182.811	-41.0907	87.5034	
342	2.85	143.836	6.02656	88.9099	121.384	11.7112	62.8871	105.391	8.76725	30.9061	96.4579	-3.16338	7.48194	162.72	-13.4141	15.4615	139.929	-10.2254	-7.75031	105.174	-10.6568	-9.13562	177.409	-36.1166	7.47544	172.107	-38.1279	-19.9904	164.925	-37.2274	-50.9023	169.211	-64.3154	13.719	167.174	-68.2231	-9.66034	163.693	-66.6798	-40.9034	153.2	-86.7487	31.8155	151.361	-90.5742	4.78059	150.422	-100.815	-17.509	171.504	-64.0139	73.0268	169.043	-61.783	107.795	177.27	-29.9557	91.5466	
343	2.85833	124.007	-0.199735	98.3946	98.9492	3.25651	71.5766	81.1453	2.10767	41.2342	74.9113	-11.0866	16.0208	142.23	1.52043	17.7654	117.683	-1.47784	-1.65777	85.5902	-16.5676	-2.13014	164.647	-20.38	9.49721	157.17	-20.7258	-22.4152	149.007	-18.5123	-52.4479	164.974	-47.7022	16.2485	163.841	-49.5707	-9.09541	159.517	-46.0734	-42.4295	157.384	-73.9829	29.7528	157.607	-81.408	4.30531	160.355	-86.9159	-22.4911	168.997	-54.3689	75.9332	169.883	-56.108	109.139	164.258	-17.2864	95.0638	
344	2.86667	107.287	-7.03646	103.113	78.5899	-7.71919	77.4975	64.3062	-14.1176	51.1572	59.2904	-24.4748	26.8039	120.291	1.65994	23.2209	95.0801	-4.57134	5.68089	69.3095	-23.7076	5.73747	148.661	-13.5654	17.9619	139.708	-7.88007	-17.1041	128.866	-4.7867	-45.9035	156.262	-35.4795	18.3407	153.255	-34.2558	-7.41287	148.25	-32.9694	-37.4507	156.741	-63.4991	31.1495	157.746	-69.8524	0.0508886	161.369	-70.7019	-22.8133	163.971	-44.5402	71.6586	168.457	-50.873	108.201	153.071	-14.6741	95.0861	
345	2.875	98.6782	-23.1679	111.221	67.1702	-24.1058	90.2882	47.0573	-29.4047	60.5552	45.6478	-39.7285	31.8818	98.4014	0.97019	36.1206	74.9677	-15.6615	12.0745	55.5875	-39.6537	13.0325	128.675	-4.92982	22.8942	120.35	-2.50678	-8.39846	106.367	-0.552104	-40.4195	145.632	-30.6646	17.3598	138.208	-25.2886	-10.1239	132.585	-22.2987	-33.4236	153.129	-59.3063	26.9011	150.636	-60.1319	-0.144017	152.389	-58.4853	-22.7028	157.855	-38.2433	73.368	165.94	-46.6959	104.784	137.51	-12.227	98.2483	
346	2.88333	90.6403	-33.8925	115.114	61.256	-39.4226	95.9234	40.5551	-44.833	64.2406	40.8572	-54.4369	39.9353	83.4186	-9.6283	37.5916	62.5141	-27.1848	18.1914	46.0062	-53.7875	19.4125	113.041	-7.33196	22.5826	101.083	-2.51095	-5.22015	87.3433	-1.45098	-32.848	133.052	-28.5591	19.932	126.06	-24.9929	-8.73503	120.26	-22.4463	-32.1869	142.936	-54.1521	29.1051	143.315	-56.3869	0.0338165	143.09	-53.4692	-20.5776	152.011	-38.3325	74.3487	161.785	-44.3631	107.031	130.003	-20.6643	99.6715	
347	2.89167	83.3934	-41.7556	120.449	54.2789	-50.5703	99.9846	37.2369	-58.4633	68.6747	30.6927	-66.8711	44.475	76.0566	-18.4796	41.9669	48.7541	-36.4867	23.9374	42.1634	-64.9105	24.1063	101.833	-12.4992	26.0162	86.6588	-8.7602	-3.96029	76.9814	-10.2928	-32.1876	123.611	-30.9531	20.6561	117.846	-26.8114	-3.13079	110.031	-22.4353	-32.8939	140.132	-56.7865	29.5375	140.356	-58.5834	-0.702594	141.251	-54.7815	-18.3354	142.403	-40.0895	76.4751	155.409	-45.2691	102.594	124.636	-23.1472	103.455	
348	2.9	81.5597	-50.0799	118.419	51.1224	-60.487	100.193	36.1242	-68.5927	68.5227	33.1351	-78.373	46.6624	68.4799	-25.8992	40.7068	51.8816	-44.7615	22.9289	40.918	-77.9289	24.3242	99.1702	-20.4733	27.7563	80.9823	-16.5502	-2.8724	70.8889	-17.5777	-29.8977	119.162	-31.6997	22.2058	115.316	-30.2282	-5.66348	103.019	-23.7521	-31.7105	138.323	-56.9367	27.4967	138.549	-58.2871	5.77346	140.337	-53.0118	-21.0505	137.229	-41.5592	75.0981	150.35	-46.9035	106.102	117.958	-28.8936	102.811	
349	2.90833	81.4623	-56.0442	118.775	51.3326	-67.5514	95.7669	36.1539	-77.6887	68.4757	32.0845	-86.211	41.1038	69.7714	-31.7877	40.614	52.3751	-54.6194	18.5359	48.0781	-87.3569	19.9041	96.2429	-24.1548	26.6431	85.2886	-23.674	-2.99373	73.2306	-23.4741	-32.9588	121.835	-38.4632	24.3872	116.16	-34.6075	-1.30636	110.339	-30.6324	-31.9589	139.671	-61.3339	31.3252	142.352	-61.4212	6.60035	146.589	-56.089	-16.5591	137.389	-45.5992	75.5016	152.748	-52.4351	105.056	114.293	-33.0641	104.121	
350	2.91667	78.8396	-58.597	112.762	54.8726	-70.7614	89.6912	42.0186	-81.7396	59.8399	38.3223	-91.1558	32.8556	74.7766	-36.6526	36.315	59.2599	-55.6328	15.249	54.8265	-90.6657	13.4998	104.638	-30.2196	23.9815	93.9828	-28.3847	-5.48575	89.2552	-31.2937	-37.4036	128.663	-44.0052	24.8059	129.242	-40.6399	-6.64497	120.148	-36.2617	-32.2382	147.657	-67.23	30.5606	154.631	-70.5274	8.51724	159.827	-62.2334	-14.7411	143.585	-51.1691	77.386	154.863	-56.6363	110.412	119.119	-36.5389	102.461	
351	2.925	80.8829	-61.4683	107.903	59.6253	-74.9982	83.7856	44.9058	-86.1159	52.276	54.2126	-97.1868	25.7217	89.0056	-43.2799	29.7251	74.5976	-67.9052	6.0086	66.6459	-95.7523	7.88037	118.61	-37.1068	23.6278	110.302	-36.0012	-8.16641	106.08	-39.8922	-40.2742	140.996	-51.6088	24.6831	143.376	-50.1077	-5.19881	144.151	-50.3571	-30.4191	156.386	-75.1204	37.6201	165.288	-77.1557	10.697	176.615	-73.0432	-11.4309	144.595	-55.679	78.0792	153.467	-57.1703	114.041	119.944	-39.2395	97.7859	
352	2.93333	79.6893	-61.2901	100.25	60.6116	-78.3438	77.2646	53.6809	-92.5247	42.9843	59.7358	-106.228	24.4894	95.6195	-50.1775	24.408	87.0391	-73.5003	2.22618	78.9828	-105.761	3.97432	127.617	-46.1296	16.283	123.763	-48.1232	-13.3452	121.697	-53.3882	-46.6286	151.601	-61.892	26.7262	156.094	-62.6146	0.117691	157.904	-61.817	-31.999	165.114	-83.5174	43.1267	174.78	-86.0096	17.3416	185.697	-84.6177	-4.99873	152.87	-61.8246	82.8611	153.443	-61.8237	116.415	118.839	-40.9046	95.1183	
353	2.94167	79.0582	-64.8304	101.078	62.9781	-83.5684	70.3757	59.3388	-102.401	41.7422	65.8727	-118.4	20.9576	103.916	-62.7081	20.9067	90.0199	-86.1464	1.11665	85.4713	-120.21	7.3164	133.692	-58.7709	18.1384	135.908	-64.7736	-12.2914	135.633	-74.2487	-45.4357	158.438	-73.8476	26.3101	162.747	-77.7006	-2.44493	166.536	-82.2915	-25.9151	169.323	-93.3101	46.9733	177.208	-97.5867	24.8053	190.012	-99.5701	1.38905	151.695	-66.4729	85.5646	150.539	-60.4568	112.837	122.136	-46.9846	97.5324	
